<svg width="40" height="40" viewBox="0 0 40 40" fill="none" xmlns="http://www.w3.org/2000/svg">
<path d="M23 14.6H25C25.2208 14.6 25.4 14.4208 25.4 14.2V11.5052C25.4 11.2956 25.2388 11.1212 25.03 11.1064C24.3936 11.0612 23.1504 11 22.2564 11C19.8 11 18.2 12.472 18.2 15.1472V17.8H15.4C15.1792 17.8 15 17.9792 15 18.2V21C15 21.2208 15.1792 21.4 15.4 21.4H18.2V29C18.2 29.2208 18.3792 29.4 18.6 29.4H21.4C21.6208 29.4 21.8 29.2208 21.8 29V21.4H24.6888C24.8928 21.4 25.064 21.2468 25.0864 21.044L25.3976 18.244C25.424 18.0072 25.2384 17.8 25 17.8H21.8V15.8C21.8 15.1372 22.3372 14.6 23 14.6Z" fill="white"/>
<circle cx="20" cy="20" r="19.5" stroke="white"/>
</svg>
