<svg width="40" height="40" viewBox="0 0 40 40" fill="none" xmlns="http://www.w3.org/2000/svg">
<circle cx="20" cy="20" r="19.5" stroke="white"/>
<path d="M27.8125 15.3481C27.4 15.9647 26.8778 16.5066 26.2762 16.9409C26.2819 17.0731 26.285 17.2056 26.285 17.3391C26.285 21.4056 23.1906 26.0947 17.53 26.0947C15.7919 26.0947 13.5269 25.4859 12.8128 24.7125C13.0541 24.7412 13.2991 24.7556 13.5472 24.7556C14.9894 24.7556 16.3162 24.2634 17.3691 23.4381C16.0225 23.4134 14.8859 22.5231 14.4944 21.3006C15.1069 21.3969 15.8841 21.2475 15.8841 21.2475C15.8841 21.2475 13.4778 20.8344 13.4156 18.1916C14.1112 18.595 14.8094 18.5762 14.8094 18.5762C14.8094 18.5762 13.4216 17.7219 13.4409 16.0153C13.4525 15.0087 13.8569 14.4675 13.8569 14.4675C16.4862 17.7053 20.2 17.6831 20.2 17.6831C20.2 17.6831 20.1203 17.2234 20.1203 16.9822C20.1203 15.2831 21.4978 13.905 23.1975 13.905C24.0825 13.905 24.8822 14.2787 25.4434 14.8772C26.145 14.7387 26.8037 14.4825 27.3981 14.13C27.1297 15.205 26.0453 15.8325 26.0453 15.8325C26.0453 15.8325 26.9731 15.7297 27.8125 15.3481Z" fill="white"/>
</svg>
