<svg width="202" height="33" viewBox="0 0 202 33" fill="none" xmlns="http://www.w3.org/2000/svg">
<path d="M23.5712 0.542145C17.0589 0.537738 10.2655 2.0055 3.40494 3.90852C2.53442 4.08483 1.68263 4.65342 1.23525 5.35865C0.822032 6.02201 0.671069 6.68867 0.542144 7.39059C-0.124519 11.1228 -0.0429766 14.79 0.0947637 18.8484C0.124516 19.7784 0.266664 20.8847 0.697515 21.5525C1.15371 22.228 1.92836 22.6577 2.85728 22.7999C4.05067 22.9806 5.23744 23.1194 6.42641 23.244L6.16415 30.5783C6.12008 31.1591 6.40878 31.6461 6.7625 31.926C7.08095 32.1662 7.43467 32.2742 7.795 32.3007C8.51786 32.3558 9.37075 32.0417 9.79278 31.2417C11.644 27.677 12.8054 26.1067 15.1173 23.7376C21.1558 23.8897 26.4241 23.5536 32.3866 23.1095C34.4957 23.0588 35.9458 21.3321 36.3293 19.9547C37.4698 16.3867 37.6505 11.9834 37.7706 7.52833C37.8224 5.76305 37.2108 4.03304 36.1265 3.11624C35.094 2.28098 33.85 1.98015 32.7051 1.67051C29.5282 0.950959 26.3525 0.564184 23.5712 0.542145ZM32.2489 3.33111C33.3938 3.64185 34.4053 3.94268 35.0367 4.45948C36.1012 5.58675 36.0659 6.34046 36.0538 7.55809C35.9326 11.8754 35.7265 16.0682 34.7491 19.2451C34.3271 20.4285 33.5998 21.2726 32.2147 21.3971C26.1365 21.8489 20.8638 22.1982 14.7558 22.0208C14.6373 22.0173 14.5194 22.0379 14.4091 22.0815C14.2988 22.1251 14.1986 22.1907 14.1145 22.2743C11.5481 24.866 10.2358 26.6709 8.27764 30.4362C8.23356 30.5222 8.13439 30.5739 8.01097 30.5828C7.93384 30.5784 7.89858 30.5133 7.89417 30.4582L8.15643 22.5024C8.15734 22.2876 8.08018 22.0797 7.9393 21.9176C7.79842 21.7554 7.60342 21.6499 7.39059 21.6208C5.96433 21.4835 4.54197 21.3083 3.12505 21.0952C2.51348 21.0048 2.28979 20.8374 2.1223 20.5883C1.82919 19.8908 1.8336 19.46 1.81266 18.7922C1.67382 14.7636 1.60991 11.2473 2.22478 7.74762C2.28539 7.22751 2.47932 6.69748 2.68538 6.25892C3.02698 5.72449 3.54709 5.64735 4.0716 5.5008C10.7779 3.64957 17.3387 2.26445 23.5194 2.26004C26.5497 2.36693 29.7266 2.67326 32.2489 3.33111ZM9.08204 10.1542C8.15643 11.2605 8.24679 12.7625 8.96083 13.7696C9.33548 14.2985 9.9173 14.7206 10.6236 14.8165C11.5448 14.8936 12.13 14.5189 12.7581 14.0925C13.8985 13.103 14.0142 11.3718 13.1459 10.1201C12.9359 9.81393 12.6579 9.56054 12.3337 9.3797C12.0095 9.19886 11.6479 9.09548 11.2771 9.07764C10.2875 9.08645 9.61648 9.52612 9.08204 10.1542ZM19.0765 9.25064C18.1564 9.28039 17.4115 9.9173 16.9553 10.606C16.4374 11.3884 16.1332 12.3746 16.5542 13.3432C17.3641 15.1988 20.1619 15.1768 21.277 13.2881C21.7883 12.4176 21.6594 11.428 21.277 10.714C20.8935 9.99444 20.3161 9.40932 19.4776 9.27598C19.345 9.25492 19.2107 9.24643 19.0765 9.25064ZM27.191 9.42254C26.9023 9.41517 26.6139 9.44705 26.3337 9.5173C25.2274 9.81482 24.2853 10.9542 24.4274 12.4143C24.5001 13.1503 24.8362 13.8688 25.4478 14.3592C26.0583 14.855 26.9409 15.0743 27.8753 14.8848C28.9464 14.6644 29.6142 13.7994 29.8334 12.9652C30.0571 12.13 30.002 11.2815 29.4852 10.5928C29.2175 10.2356 28.8715 9.94447 28.4738 9.74163C28.0762 9.53879 27.6374 9.42964 27.191 9.42254ZM11.2032 10.7911C11.406 10.7955 11.5691 10.8594 11.7366 11.1008C12.1112 11.6429 12.0076 12.4616 11.6297 12.7922C11.255 13.1195 11.0181 13.1503 10.8506 13.1283C10.6864 13.103 10.5189 12.9906 10.368 12.7801C10.0837 12.3746 9.99774 11.7211 10.3768 11.2517C10.5751 10.9851 10.9454 10.8165 11.2032 10.7911ZM19.1966 10.9807C19.2263 10.9851 19.5878 11.1955 19.7608 11.5184C19.9327 11.8413 19.9624 12.1388 19.7993 12.4143C19.3123 13.2407 18.2787 13.0159 18.1244 12.6589C18.0638 12.5211 18.1079 11.9702 18.3911 11.5448C18.6754 11.114 19.028 10.9542 19.1955 10.9807H19.1966ZM28.1023 11.6088C28.1541 11.6826 28.283 12.1509 28.1839 12.5211C28.0847 12.8958 27.9216 13.1239 27.5249 13.2054C27.018 13.3134 26.7337 13.2054 26.5178 13.0335C26.3073 12.8616 26.1607 12.5685 26.131 12.2545C26.0539 11.4798 26.3326 11.2991 26.7767 11.1823C27.2891 11.0534 27.8698 11.2771 28.1023 11.6088ZM48.5661 4.0121C48.5787 3.79387 48.6636 3.58603 48.8074 3.42147C48.8792 3.33566 48.9696 3.26742 49.0718 3.22196C49.174 3.1765 49.2852 3.15504 49.397 3.15921H55.1523C55.3463 3.15921 55.549 3.24075 55.7551 3.40053C55.8514 3.4706 55.9297 3.56264 55.9833 3.669C56.037 3.77536 56.0645 3.89297 56.0636 4.0121V13.1977H65.6944V4.0121C65.6936 3.89815 65.7158 3.7852 65.7597 3.68005C65.8036 3.57489 65.8683 3.47968 65.9499 3.40014C66.0315 3.3206 66.1284 3.25835 66.2346 3.21714C66.3409 3.17593 66.4543 3.1566 66.5682 3.16031H72.2442C72.5032 3.16031 72.7269 3.22423 72.9208 3.35315C73.1148 3.48208 73.2128 3.68924 73.2128 3.97243V31.0819C73.2128 31.3662 73.1269 31.5778 72.9594 31.7188C72.7919 31.861 72.5715 31.9337 72.3004 31.9337H66.5671C66.337 31.9428 66.1116 31.8662 65.9346 31.7188C65.7748 31.5767 65.6933 31.3662 65.6933 31.0819V20.0759H56.0647V31.0819C56.0647 31.353 55.9788 31.5646 55.8025 31.71C55.6294 31.861 55.3936 31.9337 55.0961 31.9337H49.397C48.8548 31.9337 48.5794 31.6803 48.5661 31.1767V4.0121ZM101.58 31.6031C101.427 31.7368 101.243 31.83 101.045 31.8742C100.87 31.9119 100.691 31.9318 100.512 31.9337H97.5851C97.3526 31.9337 97.1543 31.8907 96.9868 31.8092C96.8226 31.727 96.6773 31.6114 96.5604 31.4698C96.4403 31.322 96.3416 31.1581 96.2672 30.9828C96.1891 30.8011 96.1243 30.614 96.0733 30.423L95.475 27.9437C95.2821 28.3448 94.9978 28.7965 94.632 29.3089C94.2319 29.8485 93.7595 30.3305 93.2281 30.7414C92.6097 31.2157 91.9237 31.5945 91.1929 31.8654C90.405 32.1706 89.5014 32.3216 88.4811 32.3216C87.0089 32.3216 85.6712 32.0373 84.4701 31.4698C83.293 30.9199 82.2453 30.1276 81.3957 29.1447C80.5527 28.164 79.8971 27.0147 79.4332 25.7068C78.962 24.3576 78.7261 22.9375 78.7357 21.5084V8.81979C78.7357 8.32943 78.8392 7.95478 79.0552 7.70464C79.2646 7.4512 79.6062 7.32558 80.0701 7.32558H84.5472C85.1015 7.32558 85.4805 7.42035 85.6921 7.60547C85.8982 7.795 86.0006 8.15643 86.0006 8.70298V21.3156C86.0006 21.871 86.1263 22.3955 86.3753 22.8946C86.8863 23.8963 87.7382 24.6825 88.7775 25.1117C89.3031 25.3321 89.8364 25.4423 90.3797 25.4423C90.8436 25.4423 91.3262 25.3321 91.821 25.1117C92.3202 24.8913 92.7764 24.5993 93.1984 24.2335C93.616 23.8632 93.9642 23.4291 94.2364 22.9332C94.5075 22.434 94.6408 21.9084 94.6408 21.3542V8.75918C94.6408 8.5399 94.6838 8.32062 94.7653 8.10133C94.8378 7.89896 94.9699 7.72335 95.1444 7.59776C95.3119 7.49417 95.4717 7.42145 95.6182 7.38178C95.7681 7.34321 95.94 7.32668 96.1339 7.32668H100.512C101.067 7.32668 101.467 7.45891 101.713 7.73109C101.958 8.00216 102.083 8.368 102.083 8.81979V30.5012C102.083 30.7458 102.027 30.9695 101.915 31.1767C101.813 31.3778 101.656 31.5462 101.463 31.6626L101.58 31.6031ZM124.074 28.9299C123.725 29.2781 123.338 29.6527 122.921 30.0538C122.499 30.4538 122.038 30.8285 121.534 31.1767C121.031 31.5249 120.488 31.8136 119.907 32.0417C119.306 32.2691 118.668 32.383 118.026 32.3778C116.27 32.3778 114.652 32.0505 113.175 31.3916C111.732 30.7589 110.433 29.8393 109.357 28.6886C108.289 27.5437 107.459 26.196 106.856 24.6467C106.258 23.0974 105.956 21.4313 105.956 19.6495C105.956 17.8545 106.258 16.1839 106.857 14.639C107.458 13.0986 108.289 11.7553 109.358 10.6104C110.432 9.45983 111.731 8.54272 113.175 7.91621C114.652 7.26608 116.27 6.93881 118.026 6.93881C118.689 6.93098 119.348 7.03568 119.976 7.24845C120.542 7.44424 121.082 7.71042 121.582 8.04073C122.068 8.368 122.512 8.72943 122.921 9.13824C123.325 9.54265 123.713 9.94265 124.074 10.3305V1.47107C124.074 1.05895 124.199 0.71074 124.449 0.426444C124.702 0.142148 125.081 0 125.584 0H129.945C130.113 0 130.289 0.0385668 130.474 0.107988C130.664 0.180715 130.836 0.279888 130.991 0.408813C131.145 0.537737 131.271 0.693109 131.366 0.873825C131.465 1.05454 131.512 1.25289 131.512 1.47217V30.4406C131.512 31.4345 130.991 31.9337 129.945 31.9337H126.144C125.886 31.9337 125.687 31.9007 125.546 31.8345C125.405 31.7733 125.282 31.6774 125.188 31.5558C125.078 31.4146 124.99 31.2579 124.926 31.0907C124.849 30.9056 124.75 30.6863 124.633 30.4406L124.074 28.9299ZM112.929 19.6495C112.929 20.5013 113.063 21.298 113.331 22.0429C113.576 22.7544 113.961 23.41 114.462 23.9712C114.953 24.5134 115.542 24.9442 116.236 25.2583C116.924 25.5767 117.691 25.7321 118.529 25.7321C119.356 25.7321 120.135 25.5855 120.867 25.288C121.594 24.9905 122.232 24.5828 122.773 24.0572C123.32 23.526 123.763 22.8984 124.082 22.2059C124.412 21.487 124.599 20.7108 124.633 19.9206V19.6495C124.633 18.823 124.479 18.0352 124.169 17.2859C123.868 16.5521 123.432 15.8817 122.882 15.3101C122.33 14.7399 121.672 14.2826 120.945 13.9636C120.184 13.6291 119.361 13.4601 118.529 13.4677C117.691 13.4677 116.924 13.633 116.235 13.9636C115.556 14.2826 114.951 14.7419 114.462 15.3112C113.964 15.892 113.58 16.5621 113.331 17.2859C113.062 18.0447 112.926 18.8444 112.929 19.6495ZM154.007 28.9299C153.658 29.2781 153.275 29.6527 152.853 30.0538C152.434 30.4538 151.975 30.8285 151.471 31.1767C150.968 31.5249 150.425 31.8136 149.841 32.0417C149.241 32.2692 148.604 32.3832 147.963 32.3778C146.207 32.3778 144.589 32.0505 143.108 31.3916C141.667 30.7577 140.37 29.8381 139.295 28.6886C138.226 27.5437 137.392 26.196 136.794 24.6467C136.191 23.0974 135.893 21.4313 135.893 19.6495C135.893 17.8545 136.191 16.1839 136.794 14.639C137.362 13.1483 138.211 11.7806 139.295 10.6104C140.368 9.4609 141.666 8.5439 143.108 7.91621C144.589 7.26608 146.207 6.93881 147.963 6.93881C148.674 6.93881 149.324 7.04239 149.909 7.24845C150.476 7.44431 151.017 7.71048 151.518 8.04073C152 8.368 152.449 8.72943 152.853 9.13824C153.261 9.54265 153.645 9.94265 154.007 10.3305V1.47107C154.007 1.05895 154.136 0.71074 154.385 0.426444C154.638 0.142148 155.013 0 155.518 0H159.878C160.045 0 160.222 0.0385668 160.411 0.107988C160.596 0.180715 160.768 0.279888 160.924 0.408813C161.078 0.537737 161.208 0.693109 161.303 0.873825C161.402 1.05454 161.449 1.25289 161.449 1.47217V30.4406C161.449 31.4345 160.924 31.9337 159.878 31.9337H156.081C155.823 31.9337 155.621 31.9007 155.479 31.8345C155.339 31.7722 155.216 31.6765 155.121 31.5558C155.013 31.4136 154.924 31.2571 154.859 31.0907C154.782 30.9056 154.687 30.6863 154.57 30.4406L154.007 28.9299ZM142.866 19.6495C142.866 20.5013 143 21.298 143.263 22.0429C143.511 22.7538 143.897 23.409 144.398 23.9712C144.89 24.5134 145.479 24.9442 146.168 25.2583C146.862 25.5767 147.628 25.7321 148.466 25.7321C149.266 25.7381 150.059 25.5872 150.8 25.288C151.511 25.0053 152.16 24.5873 152.711 24.0572C153.257 23.5259 153.701 22.8983 154.019 22.2059C154.349 21.487 154.536 20.7108 154.57 19.9206V19.6495C154.571 18.0297 153.941 16.4734 152.813 15.3101C152.263 14.7381 151.605 14.2805 150.877 13.9636C150.118 13.6287 149.296 13.4597 148.466 13.4677C147.628 13.4677 146.861 13.633 146.168 13.9636C145.49 14.2838 144.888 14.743 144.399 15.3112C143.901 15.8929 143.515 16.5626 143.263 17.2859C142.998 18.0455 142.864 18.8448 142.866 19.6495ZM166.602 1.4931C166.602 1.07988 166.704 0.731677 166.91 0.447381C167.118 0.163085 167.475 0.0220379 167.979 0.0220379H172.726C172.855 0.0220379 172.989 0.0550957 173.131 0.128925C173.274 0.198346 173.406 0.296417 173.527 0.426444C173.652 0.555369 173.756 0.71074 173.836 0.891455C173.923 1.07217 173.966 1.27382 173.966 1.4931V30.4406C173.966 30.931 173.824 31.3056 173.548 31.5558C173.268 31.8092 172.911 31.9337 172.473 31.9337H167.978C167.475 31.9337 167.119 31.8092 166.911 31.5558C166.704 31.3056 166.601 30.931 166.601 30.4406L166.602 1.4931ZM199.229 28.9905C198.106 30.0281 196.808 30.8572 195.394 31.439C193.972 32.0285 192.466 32.3216 190.878 32.3216C189.109 32.3216 187.439 31.9987 185.863 31.353C184.321 30.7314 182.912 29.8199 181.714 28.6676C180.519 27.517 179.559 26.1459 178.886 24.6302C178.189 23.0798 177.839 21.3927 177.839 19.5723C177.839 18.4352 177.978 17.3332 178.258 16.2666C178.533 15.2032 178.929 14.2049 179.437 13.2749C179.949 12.3453 180.573 11.4823 181.296 10.7052C182.764 9.13739 184.63 7.99654 186.694 7.40382C187.752 7.09307 188.872 6.93881 190.047 6.93881C191.119 6.93881 192.157 7.08095 193.168 7.36525C195.155 7.92189 196.968 8.97493 198.436 10.4253C199.164 11.137 199.801 11.9348 200.335 12.801C200.864 13.6572 201.273 14.5751 201.566 15.5514C201.855 16.5244 202 17.5316 202 18.5652C202 19.2363 201.992 19.7828 201.97 20.2093C201.953 20.6357 201.855 20.9751 201.673 21.2296C201.492 21.4787 201.191 21.655 200.769 21.7497C200.352 21.8489 199.732 21.8963 198.918 21.8963H184.968C185.098 22.7227 185.36 23.4159 185.755 23.9712C186.148 24.5266 186.604 24.9696 187.12 25.2968C187.638 25.6274 188.189 25.861 188.769 26.0021C189.307 26.1395 189.859 26.2121 190.413 26.218C190.878 26.218 191.355 26.1707 191.846 26.0715C192.33 25.9792 192.806 25.8499 193.271 25.6847C193.706 25.5345 194.128 25.3472 194.532 25.1249C194.911 24.909 195.221 24.6853 195.453 24.4528C195.66 24.2853 195.837 24.1608 195.982 24.0781C196.128 23.9935 196.293 23.949 196.461 23.9492C196.628 23.9492 196.801 24.0098 196.973 24.1255C197.149 24.2423 197.343 24.4098 197.563 24.6302L199.615 26.9541C199.759 27.1216 199.848 27.2726 199.887 27.4103C199.926 27.5437 199.947 27.6858 199.947 27.828C199.952 28.0679 199.876 28.3026 199.732 28.4946C199.589 28.6797 199.423 28.8472 199.229 28.9905ZM189.91 12.8484C189.406 12.8484 188.919 12.9476 188.446 13.1503C187.977 13.3487 187.533 13.6143 187.12 13.9503C186.706 14.2887 186.332 14.6732 186.006 15.0963C185.692 15.4994 185.422 15.9349 185.201 16.3955H195.105C194.844 15.9103 194.549 15.4441 194.223 15.0005C193.91 14.5799 193.546 14.2011 193.137 13.8732C192.718 13.5454 192.247 13.2906 191.743 13.1195C191.218 12.9388 190.607 12.8484 189.91 12.8484Z" fill="white"/>
</svg>
